#!OML:ASF E:\emotionWalksFemale\Project 1\Capture day 1\Session 1\Female1.ASF
:FULLY-SPECIFIED
:DEGREES
287
root 9.64362 18.1982 21.2819 231.729 -81.0398 -223.112
lowerback 8.59855 4.83273 2.78816
upperback -6.14099 6.72251 -1.19628
thorax -10.9628 2.93447 -4.02014
lowerneck -12.7723 11.677 9.64581
upperneck 8.70209 15.6048 -12.1671
head 6.46063 7.08618 -3.75449
rclavicle -1.84621e-014 -7.15625e-015
rhumerus -47.9513 40.3568 -111.336
rradius 90.4562
rwrist 15.4445
rhand 0.88789 -64.1496
rfingers 7.12502
rthumb 26.4405 452.325
lclavicle -1.84621e-014 -7.15625e-015
lhumerus -47.0202 -11.1346 80.8534
lradius 29.8453
lwrist -32.8408
lhand -1.95375 -24.9361
lfingers 7.12502
lthumb 23.7178 3.62041
rfemur -5.49847 18.1577 26.2987
rtibia 17.404
rfoot -33.6076 -34.6696
rtoes 63.4279
lfemur -18.4134 -26.2323 -21.5238
ltibia 18.6825
lfoot -29.4112 15.7734
ltoes 66.8619
288
root 9.62942 18.4132 21.2347 260.563 -83.273 -251.908
lowerback 8.10615 4.55343 2.97269
upperback -6.36896 6.34235 -1.31226
thorax -10.9199 2.73067 -4.14849
lowerneck -11.5334 13.1622 11.6567
upperneck 9.01294 17.6385 -13.2899
head 6.86711 8.09515 -4.15223
rclavicle -3.68746e-014 -3.97569e-015
rhumerus -48.933 37.821 -112.287
rradius 88.3683
rwrist 15.917
rhand 1.64049 -63.8078
rfingers 7.12502
rthumb 27.1607 451.873
lclavicle -3.68746e-014 -3.97569e-015
lhumerus -43.9622 -6.12324 77.5101
lradius 26.3457
lwrist -40.6833
lhand -0.440276 -25.8696
lfingers 7.12502
lthumb 25.1686 2.49106
rfemur -6.28066 17.1908 26.16
rtibia 17.5273
rfoot -28.4674 -34.4681
rtoes 61.5409
lfemur -18.0207 -23.4602 -22.2622
ltibia 19.6105
lfoot -11.6944 27.4444
ltoes 58.6371
289
root 9.61266 18.6246 21.1691 293.424 -83.2136 -284.992
lowerback 8.03251 4.58264 2.59721
upperback -6.43851 6.34489 -1.18563
thorax -11.0084 2.76323 -3.80492
lowerneck -10.4932 14.487 12.8566
upperneck 9.20225 19.5326 -13.9423
head 7.181 9.03701 -4.27507
rclavicle 5.1684e-014 5.56597e-015
rhumerus -49.7401 35.1563 -112.529
rradius 86.2179
rwrist 15.6131
rhand 1.28218 -62.8602
rfingers 7.12502
rthumb 26.8179 450.979
lclavicle 5.1684e-014 5.56597e-015
lhumerus -41.5335 -1.87369 75.3754
lradius 24.1354
lwrist -47.6125
lhand 2.05303 -25.9885
lfingers 7.12502
lthumb 27.5553 2.01463
rfemur -6.81045 15.4276 26.1703
rtibia 17.8884
rfoot -19.1915 -36.1608
rtoes 57.8046
lfemur -17.0622 -20.5853 -22.9042
ltibia 20.2368
lfoot 1.69366 27.4609
ltoes 50.518
290
root 9.6208 18.8361 21.144 322.429 -80.7137 -313.721
lowerback 7.68691 4.32366 3.32134
upperback -6.50995 6.06593 -1.33278
thorax -10.8124 2.57458 -4.28679
lowerneck -10.0018 15.8393 13.5609
upperneck 9.44283 21.4295 -14.0748
head 7.51965 9.96847 -4.10903
rclavicle 8.12035e-014 5.48646e-014
rhumerus -49.827 32.372 -112.072
rradius 84.2812
rwrist 15.2314
rhand 1.06401 -61.0447
rfingers 7.12502
rthumb 26.6091 630.805
lclavicle 8.12035e-014 5.48646e-014
lhumerus -39.5753 -0.2276 75.0731
lradius 23.0001
lwrist -51.7986
lhand 3.3032 -24.9027
lfingers 7.12502
lthumb 28.7502 2.90372
rfemur -7.90716 14.4908 25.8085
rtibia 18.082
rfoot -10.4522 -37.1568
rtoes 54.4603
lfemur -17.1195 -18.5546 -23.2038
ltibia 20.8083
lfoot 10.6225 24.7566
ltoes 41.9044
291
root 9.6321 19.0239 21.1045 336.51 -77.1326 -327.556
lowerback 7.18713 4.14057 3.97998
upperback -6.42886 5.85739 -1.60673
thorax -10.3484 2.43638 -4.85842
lowerneck -9.46843 17.0686 13.8386
upperneck 9.35083 23.0979 -13.6995
head 7.60499 10.8228 -3.77155
rclavicle 4.13472e-014 2.78299e-014
rhumerus -49.7026 29.4692 -111.144
rradius 82.7847
rwrist 15.0841
rhand 1.60576 -62.6533
rfingers 7.12502
rthumb 27.1275 810.724
lclavicle 4.13472e-014 2.78299e-014
lhumerus -37.7377 0.127111 75.4549
lradius 22.403
lwrist -54.6002
lhand 4.65339 -24.1376
lfingers 7.12502
lthumb 30.0393 3.44252
rfemur -8.83226 14.2436 25.41
rtibia 18.2008
rfoot -0.517462 -37.1498
rtoes 49.2634
lfemur -17.1577 -17.6309 -23.2298
ltibia 21.2401
lfoot 10.2243 24.7136
ltoes 48.2134
292
root 9.63523 19.2026 21.0512 345.708 -73.4196 -337.096
lowerback 7.48739 4.07748 4.73684
upperback -6.47263 5.89582 -1.50579
thorax -10.5154 2.39481 -5.20699
lowerneck -8.45539 17.981 14.4387
upperneck 9.21643 24.4234 -13.8002
head 7.65558 11.5175 -3.71147
rclavicle -6.39093e-014 -3.57812e-014
rhumerus -50.6983 26.4502 -109.947
rradius 82.0128
rwrist 14.5754
rhand 1.44163 -62.1537
rfingers 7.12502
rthumb 26.9705 810.249
lclavicle -6.39093e-014 -3.57812e-014
lhumerus -36.574 -1.09603 76.8901
lradius 22.3787
lwrist -55.8628
lhand 6.32994 -23.954
lfingers 7.12502
lthumb 31.6377 3.3239
rfemur -8.93416 14.1666 25.8965
rtibia 18.063
rfoot 6.1195 -36.3648
rtoes 44.9237
lfemur -16.7971 -17.7812 -22.4368
ltibia 21.6649
lfoot 8.38031 25.4445
ltoes 50.9262
